<?xml version="1.0" encoding="utf-8"?>
<!-- Generator: Adobe Illustrator 28.0.0, SVG Export Plug-In . SVG Version: 6.00 Build 0)  -->
<svg version="1.1" id="Слой_1" xmlns="http://www.w3.org/2000/svg" xmlns:xlink="http://www.w3.org/1999/xlink" x="0px" y="0px"
	 viewBox="0 0 1000 1000" enable-background="new 0 0 1000 1000" xml:space="preserve">
<g id="Layer_1">
	<!-- <rect x="0.4725275" y="0.4175824" fill="#FF385C" width="1000" height="1000"/> -->
	<g>
		<path fill-rule="evenodd" clip-rule="evenodd" fill="#000000ff" d="M780.4725342,681.0842285
			c-5.333374,36-29.333374,67.333313-64,80.666687c-16.666687,6.666626-35.333374,9.333313-53.333313,6.666626
			c-18-2-35.333374-7.999939-53.333374-17.999939c-25.333313-14-50.666626-36-79.333313-67.333313
			c46-56.000061,74.666626-108.000061,84.666626-154c4.666687-21.3333435,6-41.3333435,3.333374-59.333374
			c-2.666687-17.333313-8.666687-33.333313-18.666687-47.333313c-21.333313-31.3333435-58-49.3333435-98.6667175-49.3333435
			c-40.6666565,0-77.333313,18.6666565-98.6666565,49.3333435c-9.3333435,14-16,30-18.6666565,47.333313
			c-2.666687,18-2,38,3.333313,59.333374c10.6666565,46,39.3333435,97.999939,84.6666565,154
			c-28.666687,32-54,53.333313-79.3333435,67.333313c-18,10-36,16-53.3333435,17.999939
			c-18.6666565,2.000061-36.6666565,0-53.333313-6.666626c-34-14-58.6666718-44.666687-64-80.666687
			c-2.6666718-17.999939-0.6666565-34.666626,6.0000153-54c2.6666718-6.666626,5.3333282-13.999939,9.3333435-22
			c5.3333282-11.333313,10.6666565-23.333313,16.0000153-34.666626l0.6666565-1.333313c48-104,100-208.666687,153.333313-312.666687
			l2-4c5.3333435-10.6666565,11.3333435-21.3333435,16.666687-32c5.9999695-10.6666565,11.9999695-21.3333282,19.9999695-30.6666565
			c14.666626-17.3333435,33.9999695-26,56-26c22,0,41.333313,9.3333282,56,26c8,9.3333282,14,20,20,30.6666565
			c5.333374,10.6666565,11.333313,21.3333435,16.666687,32l2,4.666687c54,103.333313,105.333374,208.6666565,153.333374,312.666687
			l0.666626,0.666687c5.333374,11.333313,10.666687,23.333313,16,35.333313c3.333374,8,6.666687,15.333374,9.333374,22.000061
			C781.1391602,646.4176025,783.1392212,663.7509155,780.4725342,681.0842285z M500.4725342,649.0842896
			c-38-48-62.0000305-92.000061-70.6666565-129.333374c-3.3333435-15.3333435-4.666687-30-2.666687-42.6666565
			c2.0000305-10.6666565,5.3333435-20.6666565,11.333313-29.3333435c13.3333435-18.666687,36-30,62.0000305-30
			c25.333374,0,48.666687,11.333313,62,30c6,8.666687,9.333374,17.9999695,11.333313,29.3333435
			c2.000061,12.6666565,1.333313,27.333313-2.666687,42.6666565
			C562.4725342,557.0842285,538.4725342,601.0842285,500.4725342,649.0842896z M816.4725342,612.4176025
			c-3.333313-8.666687-6.666687-17.333313-10-25.333374c-5.333374-12-10.666626-23.999939-16.666687-36l-0.666626-0.666626
			c-48.666687-104-100.666687-210.0000305-154.666626-314l-2.000061-4.6666718
			c-5.333313-10.6666565-11.333313-21.3333282-17.333313-32.6666565c-6.666687-12.6666718-14.666626-26-25.333374-38.6666718
			c-23.333313-26.6666718-54.666626-41.3333435-89.9999695-41.3333435c-34.6666565,0-66.666687,14.6666718-90,41.3333435
			c-10.6666565,12.6666565-18,26-25.3333435,38.6666565c-6,10.6666718-11.3333435,22-17.333313,32.6666718l-2,4
			c-52.666687,105.333313-104.666687,210.666687-153.3333588,315.333313l-0.6666718,1.333313
			c-5.3333282,11.333313-10.6666565,23.333374-15.9999847,35.333374c-3.3333435,8-7.3333435,16-10,25.333374
			c-9.3333435,25.333313-12,50-8.0000153,74.666626c7.3333435,52,42.666687,96,91.3333435,116
			c18,7.333313,37.333313,11.333313,57.3333435,11.333313c6,0,12-0.666626,18.6666565-1.333313
			c23.3333435-2.666687,47.3333435-10.666626,70-23.333313c28.6666565-16,56.666687-39.333374,86.666687-72.000061
			c30.666687,33.333374,58.666687,56.666687,86.666687,72.000061c23.333313,12.666687,46.666687,20.666626,70,23.333313
			c6,0.666687,12,1.333313,18.666687,1.333313c20,0,39.333313-4,57.333313-11.333313c48.666687-19.333313,84-64,91.333313-116
			C827.8058472,663.0842896,825.1391602,638.4175415,816.4725342,612.4176025z"/>
	</g>
</g>
<g id="Dimensions">
</g>
</svg>
