<?xml version="1.0" encoding="UTF-8" standalone="no"?>
<!-- Created with Inkscape (http://www.inkscape.org/) -->

<svg
   version="1.1"
   id="svg1"
   width="512"
   height="512"
   viewBox="0 0 512 512"
   xml:space="preserve"
   xmlns:xlink="http://www.w3.org/1999/xlink"
   xmlns="http://www.w3.org/2000/svg"
   xmlns:svg="http://www.w3.org/2000/svg"><defs
     id="defs1" /><g
     id="g1"><image
       width="464.04407"
       height="456.14545"
       preserveAspectRatio="none"
       style="display:none;image-rendering:optimizeQuality"
       xlink:href="images/image1-8.png"
       id="image1-8"
       x="-7.4776831"
       y="71.889267" /><g
       id="g3"
       transform="matrix(2.3798177,0,0,2.6528561,-278.31251,-488.54439)"
       style="fill:#ff385c"><path
         style="display:inline;fill:#ff385c;stroke-width:0.564187"
         d="m 161.35758,376.59221 c -0.46546,-0.27536 -1.76743,-0.64697 -2.89328,-0.82578 -1.12585,-0.17881 -2.71263,-0.942 -3.52617,-1.69597 l -1.47918,-1.37085 v -40.93052 c 0,-23.30818 -0.21457,-40.93052 -0.49838,-40.93052 -0.27411,0 -0.62201,-0.47275 -0.77311,-1.05055 -0.1511,-0.5778 -1.10831,-1.4664 -2.12714,-1.97466 -1.57787,-0.78714 -4.09977,-0.9241 -17.01593,-0.9241 h -15.16352 l 3.20498,-2.96199 c 4.53311,-4.1894 16.21276,-15.47946 27.28592,-26.37575 5.2031,-5.12 13.71848,-13.37124 18.92306,-18.33609 5.20457,-4.96485 11.28683,-10.80419 13.51611,-12.97631 43.93793,-42.81129 41.85533,-40.90358 44.65364,-40.90358 2.06329,0 2.26345,0.12089 6.07196,3.66721 3.55411,3.30945 59.52804,57.98774 63.25134,61.78725 2.45455,2.50479 5.32057,5.33668 17.69178,17.48107 7.74441,7.60243 15.15145,14.83813 16.46007,16.07934 l 2.37933,2.25675 -14.88046,0.13779 c -10.57193,0.0979 -15.28887,0.34293 -16.29094,0.84628 -3.30868,1.66198 -3.08984,-1.27539 -3.25478,43.68729 -0.0974,26.56555 -0.3498,41.36721 -0.70524,41.36721 -0.30441,0 -0.55348,0.32609 -0.55348,0.72464 0,0.99023 -2.95587,2.66048 -4.7083,2.66048 -0.78714,0 -1.58808,0.25389 -1.77985,0.56419 -0.43189,0.6988 -17.01428,0.76943 -17.44389,0.0743 -0.16652,-0.26943 -1.79497,-0.65871 -3.61878,-0.86505 -1.82381,-0.20634 -4.68569,-0.90313 -6.35973,-1.54843 -1.67405,-0.6453 -3.7419,-1.30038 -4.59524,-1.45573 -0.85333,-0.15536 -1.55151,-0.48737 -1.55151,-0.73779 0,-0.25043 -0.76165,-0.62262 -1.69256,-0.82708 -0.93091,-0.20446 -1.69256,-0.57794 -1.69256,-0.82995 0,-0.252 -0.6165,-0.61292 -1.37,-0.80204 -1.61407,-0.4051 -7.92496,-4.58606 -9.67198,-6.40768 -0.66959,-0.69818 -1.39251,-1.26942 -1.60648,-1.26942 -0.21398,0 -1.2004,-0.76048 -2.19206,-1.68995 -0.99166,-0.92948 -1.99342,-1.69113 -2.22615,-1.69256 -1.30921,-0.008 -0.0451,-2.42671 2.82094,-5.39714 0.38787,-0.40202 0.70523,-0.99268 0.70523,-1.31259 0,-0.31991 0.59165,-1.16317 1.31478,-1.87391 1.51594,-1.48997 6.58384,-9.60083 6.58384,-10.53704 0,-0.34567 0.19399,-0.62849 0.4311,-0.62849 0.4531,0 2.38984,-4.11812 2.38984,-5.08156 0,-0.30817 0.23157,-0.56031 0.51459,-0.56031 0.28303,0 0.68617,-1.01554 0.89588,-2.25675 0.2097,-1.24121 0.61284,-2.25675 0.89587,-2.25675 0.28302,0 0.5146,-0.61973 0.5146,-1.37717 0,-0.75745 0.22459,-1.51598 0.49908,-1.68563 1.54719,-0.95621 1.73548,-16.62002 0.24946,-20.75251 -0.5343,-1.48582 -1.17518,-2.7015 -1.42418,-2.7015 -0.24901,0 -0.45274,-0.34198 -0.45274,-0.75995 0,-0.41797 -0.52315,-1.37004 -1.16256,-2.1157 -0.63942,-0.74567 -1.65328,-1.92699 -2.25302,-2.62517 -0.59975,-0.69818 -1.47296,-1.26942 -1.94047,-1.26942 -0.4675,0 -0.85001,-0.21784 -0.85001,-0.48409 0,-0.73335 -5.367,-3.36359 -7.76195,-3.80395 -1.16123,-0.21352 -2.26591,-0.62596 -2.45484,-0.91653 -0.449,-0.69055 -16.15212,-0.68871 -17.03367,0.002 -0.37224,0.29166 -1.55178,0.69659 -2.62117,0.89983 -2.44925,0.46548 -6.23636,2.11649 -6.23636,2.71876 0,0.25059 -0.27599,0.45561 -0.61332,0.45561 -1.24265,0 -6.54835,6.02532 -8.16104,9.26792 -1.61381,3.24484 -1.6631,3.58931 -1.6631,11.62061 0,5.20958 0.23192,8.56997 0.62584,9.06817 0.34421,0.43533 0.77456,1.57861 0.95632,2.54062 0.49312,2.6099 6.05101,14.89442 6.7387,14.89442 0.23322,0 0.42404,0.39236 0.42404,0.87192 0,0.47956 0.63471,1.50664 1.41047,2.2824 0.77576,0.77575 1.41047,1.66309 1.41047,1.97185 0,0.64879 2.33285,4.09137 2.96198,4.37098 0.23273,0.10344 0.42314,0.45515 0.42314,0.78158 0,0.32644 0.60502,1.15424 1.34449,1.83956 2.46806,2.28732 2.34646,3.24889 -0.81243,6.42443 -1.58466,1.59302 -3.09616,2.8964 -3.35889,2.8964 -0.26273,0 -0.81319,0.32734 -1.22323,0.72741 -0.41004,0.40009 -2.07843,1.58532 -3.70752,2.63387 -1.62909,1.04854 -2.96198,2.11756 -2.96198,2.3756 0,0.25805 -0.31735,0.47779 -0.70523,0.48832 -0.38788,0.0105 -1.72077,0.50968 -2.96199,1.10923 -1.24121,0.59955 -2.5741,1.0987 -2.96198,1.10923 -0.38788,0.0105 -0.70523,0.27303 -0.70523,0.58333 0,0.31031 -0.47875,0.56419 -1.06389,0.56419 -0.58513,0 -1.79108,0.37926 -2.67989,0.84281 -0.8888,0.46354 -2.18724,0.84436 -2.88543,0.84628 -0.69818,0.002 -1.26942,0.2357 -1.26942,0.51952 0,0.28383 -1.90779,0.69483 -4.23954,0.91333 -2.33176,0.21851 -4.37781,0.62099 -4.5468,0.89442 -0.40031,0.64771 -16.06107,0.58396 -17.16627,-0.0699 z"
         id="path2" /><path
         style="fill:#ff385c;stroke-width:0.564187"
         d="m 224.9697,346.6461 c -0.54303,-0.59475 -0.98733,-1.27437 -0.98733,-1.51027 0,-0.2359 -0.63471,-1.11341 -1.41047,-1.95003 -0.77576,-0.83662 -1.41047,-1.77348 -1.41047,-2.0819 0,-0.30843 -0.31735,-0.76381 -0.70523,-1.01195 -0.38788,-0.24815 -1.18951,-1.40324 -1.78141,-2.56688 -0.59189,-1.16364 -1.29007,-2.1157 -1.55151,-2.1157 -0.26144,0 -0.47535,-0.30217 -0.47535,-0.67149 0,-0.55984 -2.03892,-5.16114 -4.00406,-9.0361 -0.26852,-0.52948 -0.65328,-1.99494 -0.85503,-3.25659 -0.20174,-1.26164 -0.58734,-2.43019 -0.85689,-2.59678 -0.91228,-0.56382 -0.56006,-8.94884 0.46249,-11.01021 1.88627,-3.80253 5.4115,-6.41663 9.47484,-7.02596 5.08758,-0.76293 13.26846,-0.19125 13.26846,0.9272 0,0.28119 0.36275,0.51125 0.80611,0.51125 1.0431,0 4.7617,3.50955 5.83269,5.50479 0.9484,1.76685 1.1275,11.61837 0.23142,12.72989 -0.29512,0.36608 -0.71454,1.7446 -0.93205,3.06339 -0.21751,1.31879 -0.62705,2.3978 -0.91007,2.3978 -0.28303,0 -0.5146,0.50776 -0.5146,1.12837 0,0.62061 -0.23371,1.12838 -0.51936,1.12838 -0.28565,0 -0.68665,0.76165 -0.89111,1.69256 -0.20446,0.93091 -0.57794,1.69256 -0.82994,1.69256 -0.25201,0 -0.6328,0.69564 -0.84619,1.54586 -0.21339,0.85023 -0.57658,1.67535 -0.80709,1.83361 -0.2305,0.15826 -1.60264,2.06494 -3.04918,4.23706 -3.97008,5.96144 -5.15925,7.60566 -5.46925,7.56212 -0.15515,-0.0218 -0.72639,-0.52624 -1.26942,-1.12098 z"
         id="path3" /></g></g></svg>
